<svg id="svg" version="1.1" xmlns="http://www.w3.org/2000/svg" xmlns:xlink="http://www.w3.org/1999/xlink" width="400" height="400" viewBox="0, 0, 400,400"><g id="svgg"><path id="path0" d="M201.843 44.566 C 196.515 45.346,188.365 50.569,186.861 54.168 C 184.665 59.424,188.828 60.858,193.750 56.540 C 198.182 52.652,203.241 51.876,207.031 54.503 C 212.883 58.558,212.846 65.531,206.940 71.816 C 204.093 74.845,198.010 77.766,190.624 79.650 C 184.197 81.289,183.594 81.646,183.594 83.811 C 183.594 85.786,184.894 87.108,186.845 87.116 C 191.458 87.135,196.929 89.157,199.908 91.944 C 207.967 99.482,205.265 118.529,195.503 122.995 C 194.861 123.288,194.050 123.672,193.700 123.847 C 192.144 124.627,190.163 124.697,188.549 124.029 C 185.490 122.763,183.667 121.799,183.248 121.227 C 181.550 118.905,177.457 117.383,172.917 117.383 L 168.686 117.383 167.546 118.659 C 166.145 120.226,165.871 125.414,167.058 127.903 C 169.877 133.815,190.261 133.980,200.977 128.178 C 203.735 126.684,208.867 122.807,209.632 121.640 C 209.986 121.100,210.756 120.143,211.344 119.514 C 212.608 118.161,215.162 113.095,216.652 108.984 C 217.654 106.220,217.715 105.669,217.722 99.219 L 217.729 92.383 216.336 89.453 C 214.538 85.672,212.995 83.607,210.774 82.012 C 208.988 80.730,208.549 80.077,209.473 80.080 C 210.246 80.082,217.969 76.144,217.969 75.748 C 217.969 75.551,218.224 75.391,218.536 75.391 C 221.300 75.391,225.098 68.525,225.325 63.120 C 225.881 49.829,216.505 42.421,201.843 44.566 M208.887 47.267 C 218.774 48.551,225.114 57.942,221.881 66.513 C 220.236 70.876,215.166 74.713,207.318 77.534 C 202.696 79.196,202.625 80.469,206.991 83.372 C 219.646 91.785,217.146 113.544,202.397 123.348 C 199.115 125.529,198.819 125.432,201.181 122.949 C 205.466 118.445,207.422 113.063,207.422 105.780 C 207.422 92.576,202.201 86.092,190.323 84.541 C 187.507 84.173,187.451 83.739,190.123 82.992 C 196.366 81.245,199.275 80.277,201.882 79.077 C 204.860 77.706,209.319 74.608,209.916 73.495 C 210.105 73.141,210.660 72.412,211.149 71.875 C 213.622 69.155,214.862 63.409,213.885 59.196 C 212.236 52.087,205.949 48.722,197.830 50.605 C 194.663 51.340,194.357 51.176,196.564 49.926 C 199.320 48.365,201.340 47.601,203.563 47.278 C 204.718 47.110,205.752 46.956,205.859 46.936 C 205.967 46.916,207.329 47.065,208.887 47.267 M2.109 82.578 L 0.781 83.906 0.781 110.039 C 0.781 139.670,0.430 137.109,4.492 137.109 C 8.543 137.109,8.203 139.333,8.203 112.812 L 8.203 89.453 82.031 89.453 C 155.339 89.453,155.865 89.448,156.641 88.672 C 157.662 87.651,157.780 82.836,156.808 81.864 C 156.254 81.310,148.730 81.250,79.816 81.250 L 3.438 81.250 2.109 82.578 M244.364 81.864 C 243.917 82.311,243.750 83.260,243.750 85.352 C 243.750 87.443,243.917 88.392,244.364 88.839 C 244.918 89.393,252.172 89.453,318.387 89.453 L 391.797 89.453 391.797 112.813 C 391.797 139.333,391.457 137.109,395.508 137.109 C 399.570 137.109,399.219 139.668,399.219 110.052 C 399.219 82.353,399.254 82.864,397.273 81.840 C 395.499 80.922,245.282 80.946,244.364 81.864 M154.567 84.623 C 155.342 86.643,160.106 86.515,80.253 86.622 C 21.837 86.700,6.426 86.822,6.181 87.208 C 6.011 87.476,5.867 97.539,5.861 109.570 C 5.850 133.667,5.810 134.375,4.483 134.375 C 3.286 134.375,3.017 128.012,3.192 103.840 L 3.320 86.000 4.267 84.992 L 5.214 83.984 79.768 83.984 C 148.430 83.984,154.341 84.035,154.567 84.623 M395.661 84.668 C 396.713 85.539,396.670 84.276,396.569 111.621 L 396.484 134.375 395.508 134.375 L 394.531 134.375 394.486 113.184 C 394.460 101.528,394.329 90.850,394.193 89.453 L 393.945 86.914 320.318 86.719 C 239.748 86.505,245.815 86.684,246.634 84.547 C 247.001 83.591,394.505 83.711,395.661 84.668 M175.869 120.476 C 176.669 120.761,178.867 122.040,180.752 123.317 C 184.909 126.133,187.971 127.344,190.933 127.344 C 193.833 127.344,193.217 127.860,189.106 128.877 C 179.272 131.310,169.141 128.708,169.141 123.750 C 169.141 120.318,171.801 119.023,175.869 120.476 M110.109 129.300 C 108.039 130.509,108.171 125.075,108.195 208.385 L 108.218 285.110 106.408 284.098 C 101.236 281.207,89.745 279.940,82.227 281.431 C 80.508 281.772,78.135 282.231,76.953 282.452 C 75.771 282.673,73.180 283.547,71.195 284.396 C 69.210 285.244,67.462 285.937,67.311 285.938 C 67.161 285.938,65.797 286.661,64.281 287.546 C 45.740 298.366,36.328 311.653,36.328 327.009 C 36.328 338.735,41.907 346.158,53.125 349.359 C 61.311 351.695,78.509 350.091,85.749 346.315 C 86.390 345.981,87.135 345.707,87.405 345.706 C 88.006 345.703,94.138 342.207,96.289 340.641 C 97.148 340.016,98.818 338.839,100.000 338.026 C 104.583 334.873,111.159 327.658,113.711 322.983 C 116.006 318.777,116.610 317.460,117.518 314.678 L 118.547 311.523 118.667 222.461 C 118.793 128.623,118.830 131.294,117.375 129.839 C 116.370 128.834,111.522 128.474,110.109 129.300 M292.665 129.905 L 291.797 130.513 291.797 211.155 C 291.797 279.436,291.714 291.797,291.258 291.797 C 290.962 291.797,289.746 291.351,288.557 290.807 C 283.934 288.690,275.273 288.023,268.313 289.248 C 265.002 289.830,257.148 292.311,256.465 292.991 C 256.261 293.193,255.821 293.366,255.488 293.375 C 255.155 293.383,253.916 293.993,252.734 294.729 C 251.553 295.466,249.971 296.408,249.219 296.822 C 229.137 307.886,220.781 333.627,233.401 345.549 C 241.833 353.514,263.179 353.365,277.400 345.242 C 283.068 342.004,295.313 331.403,295.313 329.733 C 295.313 329.524,295.579 329.086,295.904 328.761 C 296.893 327.773,299.667 322.251,300.738 319.141 L 301.747 316.211 301.865 252.932 C 301.931 218.128,302.109 189.848,302.262 190.088 C 302.414 190.327,303.974 192.084,305.729 193.992 C 312.148 200.973,316.920 206.494,318.264 208.496 C 319.022 209.624,319.766 210.547,319.917 210.547 C 320.512 210.547,325.738 219.543,329.674 227.344 C 330.270 228.525,331.528 231.865,332.469 234.766 L 334.180 240.039 334.180 247.852 C 334.180 255.857,334.028 257.183,332.175 265.430 C 330.977 270.759,329.874 274.661,328.917 276.953 C 328.514 277.920,327.799 279.766,327.328 281.055 C 326.858 282.344,326.229 283.976,325.932 284.681 C 325.170 286.486,325.244 290.140,326.075 291.769 C 328.322 296.175,335.842 296.003,337.773 291.501 C 340.773 284.506,344.176 272.332,345.716 263.086 C 346.953 255.659,346.975 238.305,345.755 232.857 C 344.431 226.947,342.411 220.821,340.266 216.211 C 339.666 214.922,338.672 212.725,338.058 211.328 C 337.064 209.070,333.342 202.143,330.971 198.140 C 330.495 197.337,329.678 195.889,329.155 194.922 C 328.632 193.955,327.703 192.520,327.090 191.733 C 326.128 190.496,324.367 187.624,321.769 183.053 C 321.389 182.384,320.385 180.781,319.538 179.492 C 315.603 173.503,313.205 169.236,310.383 163.205 C 307.829 157.747,306.817 155.144,303.955 146.680 C 302.996 143.842,302.062 138.521,301.707 133.867 C 301.377 129.552,301.097 129.297,296.680 129.297 C 294.464 129.297,293.276 129.477,292.665 129.905 M115.011 132.254 C 116.056 133.299,116.047 132.421,115.932 222.461 L 115.820 310.352 114.908 313.086 C 112.271 320.992,104.816 330.757,97.656 335.682 C 96.475 336.495,94.805 337.676,93.945 338.306 C 89.228 341.764,81.977 345.062,75.781 346.569 C 70.528 347.847,59.712 347.996,55.461 346.849 C 30.725 340.175,34.452 310.591,62.305 292.530 C 76.968 283.022,93.356 280.945,105.381 287.070 C 108.410 288.614,109.093 288.769,109.981 288.119 C 110.730 287.572,110.745 286.300,110.938 210.156 C 111.129 134.100,111.146 132.740,111.891 132.195 C 112.889 131.465,114.248 131.491,115.011 132.254 M298.935 134.961 C 299.619 141.146,300.896 147.463,302.189 151.061 C 306.662 163.500,310.645 171.679,317.179 181.836 C 318.008 183.125,320.033 186.377,321.678 189.063 C 323.323 191.748,325.446 195.176,326.396 196.680 C 327.347 198.184,328.366 199.854,328.661 200.391 C 328.956 200.928,330.371 203.470,331.806 206.040 C 336.675 214.766,341.187 225.907,342.964 233.594 C 344.297 239.361,344.108 256.221,342.623 264.063 C 341.332 270.879,339.200 278.988,337.489 283.594 C 336.891 285.205,336.194 287.187,335.940 287.998 C 334.838 291.528,331.956 292.884,329.559 290.999 C 327.833 289.640,327.892 288.238,329.899 283.008 C 337.540 263.093,339.146 246.068,334.702 232.098 C 331.826 223.056,324.723 210.718,317.578 202.350 C 305.919 188.696,300.723 183.719,299.730 185.254 C 299.556 185.522,299.318 214.834,299.201 250.391 L 298.988 315.039 298.145 317.459 C 292.857 332.622,275.814 345.911,258.678 348.231 C 226.840 352.543,219.562 323.402,247.199 302.266 C 261.166 291.584,276.075 288.643,288.444 294.127 C 290.790 295.168,292.940 295.930,293.222 295.822 C 294.482 295.338,294.527 292.508,294.529 212.663 C 294.530 168.602,294.657 132.427,294.810 132.274 C 294.963 132.121,295.886 132.047,296.860 132.111 L 298.633 132.227 298.935 134.961 " stroke="none" fill="#232927" fill-rule="evenodd"></path><path id="path1" d="M203.563 47.278 C 201.340 47.601,199.320 48.365,196.564 49.926 C 194.357 51.176,194.663 51.340,197.830 50.605 C 205.949 48.722,212.236 52.087,213.885 59.196 C 214.862 63.409,213.622 69.155,211.149 71.875 C 210.660 72.412,210.105 73.141,209.916 73.495 C 209.319 74.608,204.860 77.706,201.882 79.077 C 199.275 80.277,196.366 81.245,190.123 82.992 C 187.451 83.739,187.507 84.173,190.323 84.541 C 202.201 86.092,207.422 92.576,207.422 105.780 C 207.422 113.063,205.466 118.445,201.181 122.949 C 198.819 125.432,199.115 125.529,202.397 123.348 C 217.146 113.544,219.646 91.785,206.991 83.372 C 202.625 80.469,202.696 79.196,207.318 77.534 C 220.329 72.857,225.475 65.066,221.529 56.021 C 219.380 51.095,210.653 46.036,205.859 46.936 C 205.752 46.956,204.718 47.110,203.563 47.278 M4.267 84.992 L 3.320 86.000 3.192 103.840 C 3.017 128.012,3.286 134.375,4.483 134.375 C 5.810 134.375,5.850 133.667,5.861 109.570 C 5.867 97.539,6.011 87.476,6.181 87.208 C 6.426 86.822,21.837 86.700,80.253 86.622 C 160.106 86.515,155.342 86.643,154.567 84.623 C 154.341 84.035,148.430 83.984,79.768 83.984 L 5.214 83.984 4.267 84.992 M246.634 84.547 C 245.815 86.684,239.748 86.505,320.318 86.719 L 393.945 86.914 394.193 89.453 C 394.329 90.850,394.460 101.528,394.486 113.184 L 394.531 134.375 395.508 134.375 L 396.484 134.375 396.569 111.621 C 396.670 84.276,396.713 85.539,395.661 84.668 C 394.505 83.711,247.001 83.591,246.634 84.547 M170.826 120.315 C 168.212 121.369,168.689 126.238,171.558 127.774 C 175.300 129.777,183.408 130.286,189.106 128.877 C 193.217 127.860,193.833 127.344,190.933 127.344 C 187.971 127.344,184.909 126.133,180.752 123.317 C 176.026 120.116,173.339 119.303,170.826 120.315 M111.891 132.195 C 111.146 132.740,111.129 134.100,110.938 210.156 C 110.745 286.300,110.730 287.572,109.981 288.119 C 109.093 288.769,108.410 288.614,105.381 287.070 C 93.356 280.945,76.968 283.022,62.305 292.530 C 34.452 310.591,30.725 340.175,55.461 346.849 C 59.712 347.996,70.528 347.847,75.781 346.569 C 78.866 345.819,80.119 345.390,84.766 343.492 C 86.975 342.589,91.889 339.813,93.945 338.306 C 94.805 337.676,96.475 336.495,97.656 335.682 C 104.816 330.757,112.271 320.992,114.908 313.086 L 115.820 310.352 115.932 222.461 C 115.994 174.121,115.949 134.187,115.834 133.719 C 115.361 131.802,113.443 131.061,111.891 132.195 M294.810 132.274 C 294.657 132.427,294.530 168.602,294.529 212.663 C 294.527 292.508,294.482 295.338,293.222 295.822 C 292.940 295.930,290.790 295.168,288.444 294.127 C 260.153 281.582,216.324 319.409,233.889 341.211 C 248.111 358.865,288.972 343.760,298.145 317.459 L 298.988 315.039 299.201 250.391 C 299.318 214.834,299.556 185.522,299.730 185.254 C 300.723 183.719,305.919 188.696,317.578 202.350 C 324.723 210.718,331.826 223.056,334.702 232.098 C 339.146 246.068,337.540 263.093,329.899 283.008 C 327.892 288.238,327.833 289.640,329.559 290.999 C 331.956 292.884,334.838 291.528,335.940 287.998 C 336.194 287.187,336.891 285.205,337.489 283.594 C 342.300 270.643,344.657 254.413,343.728 240.646 C 343.051 230.625,339.060 219.039,331.806 206.040 C 330.371 203.470,328.956 200.928,328.661 200.391 C 328.366 199.854,327.347 198.184,326.396 196.680 C 325.446 195.176,323.323 191.748,321.678 189.063 C 320.033 186.377,318.008 183.125,317.179 181.836 C 310.645 171.679,306.662 163.500,302.189 151.061 C 300.896 147.463,299.619 141.146,298.935 134.961 L 298.633 132.227 296.860 132.111 C 295.886 132.047,294.963 132.121,294.810 132.274 " stroke="none" fill="#04f7b6" fill-rule="evenodd"></path></g></svg>